<svg width="24" height="30" viewBox="0 0 24 30" fill="none" xmlns="http://www.w3.org/2000/svg">
<path d="M2.43587 30C1.75318 30 1.17653 29.7647 0.705917 29.2941C0.235306 28.8235 0 28.2468 0 27.5641V9.10254C0 8.41985 0.235306 7.8432 0.705917 7.37258C1.17653 6.90197 1.75318 6.66667 2.43587 6.66667H5.96154V5.70512C5.96154 4.11251 6.51425 2.76351 7.61967 1.65812C8.72508 0.552708 10.0741 0 11.6667 0C13.2593 0 14.6082 0.552708 15.7137 1.65812C16.8191 2.76351 17.3718 4.11251 17.3718 5.70512V6.66667H20.8975C21.5802 6.66667 22.1568 6.90197 22.6274 7.37258C23.098 7.8432 23.3333 8.41985 23.3333 9.10254V27.5641C23.3333 28.2468 23.098 28.8235 22.6274 29.2941C22.1568 29.7647 21.5802 30 20.8975 30H2.43587ZM2.43587 28.5898H20.8975C21.1539 28.5898 21.3889 28.4829 21.6026 28.2693C21.8162 28.0556 21.9231 27.8205 21.9231 27.5641V9.10254C21.9231 8.84613 21.8162 8.61108 21.6026 8.39742C21.3889 8.18375 21.1539 8.07692 20.8975 8.07692H17.3718V12.3718C17.3718 12.5727 17.304 12.7404 17.1684 12.875C17.0327 13.0096 16.8638 13.0769 16.6614 13.0769C16.4591 13.0769 16.2918 13.0096 16.1597 12.875C16.0276 12.7404 15.9615 12.5727 15.9615 12.3718V8.07692H7.37179V12.3718C7.37179 12.5727 7.30399 12.7404 7.16837 12.875C7.03274 13.0096 6.86375 13.0769 6.66142 13.0769C6.45908 13.0769 6.29185 13.0096 6.15971 12.875C6.0276 12.7404 5.96154 12.5727 5.96154 12.3718V8.07692H2.43587C2.17946 8.07692 1.94442 8.18375 1.73075 8.39742C1.51708 8.61108 1.41025 8.84613 1.41025 9.10254V27.5641C1.41025 27.8205 1.51708 28.0556 1.73075 28.2693C1.94442 28.4829 2.17946 28.5898 2.43587 28.5898ZM7.37179 6.66667H15.9615V5.70512C15.9615 4.49643 15.5479 3.47844 14.7206 2.65117C13.8933 1.82389 12.8754 1.41025 11.6667 1.41025C10.458 1.41025 9.43999 1.82389 8.61271 2.65117C7.78543 3.47844 7.37179 4.49643 7.37179 5.70512V6.66667Z" fill="black" fill-opacity="0.6"/>
</svg>
