<svg width="53" height="53" viewBox="0 0 53 53" fill="none" xmlns="http://www.w3.org/2000/svg">
<circle opacity="0.2" cx="26.5" cy="26.5" r="25.5" stroke="black" stroke-opacity="0.7" stroke-width="2"/>
<path d="M27 41L24.68 39.0163C21.9867 36.7021 19.76 34.7057 18 33.0272C16.24 31.3488 14.84 29.842 13.8 28.5068C12.76 27.1717 12.0333 25.9446 11.62 24.8256C11.2067 23.7066 11 22.5622 11 21.3924C11 19.0018 11.84 17.0054 13.52 15.4033C15.2 13.8011 17.2933 13 19.8 13C21.1867 13 22.5067 13.2797 23.76 13.8392C25.0133 14.3987 26.0933 15.1871 27 16.2044C27.9067 15.1871 28.9867 14.3987 30.24 13.8392C31.4933 13.2797 32.8133 13 34.2 13C36.7067 13 38.8 13.8011 40.48 15.4033C42.16 17.0054 43 19.0018 43 21.3924C43 22.5622 42.7933 23.7066 42.38 24.8256C41.9667 25.9446 41.24 27.1717 40.2 28.5068C39.16 29.842 37.76 31.3488 36 33.0272C34.24 34.7057 32.0133 36.7021 29.32 39.0163L27 41ZM27 36.8801C29.56 34.693 31.6667 32.8174 33.32 31.2534C34.9733 29.6894 36.28 28.3288 37.24 27.1717C38.2 26.0145 38.8667 24.9846 39.24 24.0817C39.6133 23.1789 39.8 22.2825 39.8 21.3924C39.8 19.8665 39.2667 18.5949 38.2 17.5777C37.1333 16.5604 35.8 16.0518 34.2 16.0518C32.9467 16.0518 31.7867 16.3887 30.72 17.0627C29.6533 17.7366 28.92 18.5949 28.52 19.6376H25.48C25.08 18.5949 24.3467 17.7366 23.28 17.0627C22.2133 16.3887 21.0533 16.0518 19.8 16.0518C18.2 16.0518 16.8667 16.5604 15.8 17.5777C14.7333 18.5949 14.2 19.8665 14.2 21.3924C14.2 22.2825 14.3867 23.1789 14.76 24.0817C15.1333 24.9846 15.8 26.0145 16.76 27.1717C17.72 28.3288 19.0267 29.6894 20.68 31.2534C22.3333 32.8174 24.44 34.693 27 36.8801Z" fill="#C1C1C1" fill-opacity="0.7"/>
</svg>
