<svg width="24" height="22" viewBox="0 0 24 22" fill="none" xmlns="http://www.w3.org/2000/svg">
<path d="M11.6667 9.74358C10.2917 9.74358 9.13594 9.27536 8.1995 8.33892C7.26308 7.4025 6.79488 6.24322 6.79488 4.86108C6.79488 3.47897 7.26308 2.32326 8.1995 1.39396C9.13594 0.464653 10.2917 0 11.6667 0C13.0417 0 14.1974 0.464653 15.1338 1.39396C16.0702 2.32326 16.5385 3.47897 16.5385 4.86108C16.5385 6.24322 16.0702 7.4025 15.1338 8.33892C14.1974 9.27536 13.0417 9.74358 11.6667 9.74358ZM0 21.8013V19.2799C0 18.5605 0.207084 17.9079 0.62125 17.3221C1.03542 16.7363 1.58332 16.2799 2.26496 15.953C3.88746 15.2172 5.47699 14.6618 7.03354 14.2868C8.59007 13.9118 10.1342 13.7243 11.666 13.7243C13.1978 13.7243 14.7411 13.9129 16.296 14.29C17.8508 14.6672 19.4356 15.2247 21.0503 15.9627C21.7473 16.2861 22.3021 16.7399 22.7146 17.3243C23.1271 17.9087 23.3333 18.5605 23.3333 19.2799V21.8013H0ZM1.41025 20.391H21.9231V19.2799C21.9231 18.8746 21.7883 18.4872 21.5187 18.1175C21.2491 17.7479 20.8789 17.4395 20.4081 17.1923C18.9508 16.4822 17.5016 15.9617 16.0602 15.6309C14.6189 15.3 13.1544 15.1346 11.6667 15.1346C10.1789 15.1346 8.7087 15.3 7.256 15.6309C5.80328 15.9617 4.35754 16.4822 2.91879 17.1923C2.44799 17.4395 2.07886 17.7479 1.81142 18.1175C1.54397 18.4872 1.41025 18.8746 1.41025 19.2799V20.391ZM11.6667 8.33333C12.6375 8.33333 13.4571 7.99911 14.1255 7.33067C14.794 6.66219 15.1282 5.84257 15.1282 4.87179C15.1282 3.90099 14.794 3.08136 14.1255 2.41292C13.4571 1.74447 12.6375 1.41025 11.6667 1.41025C10.6959 1.41025 9.87624 1.74447 9.20779 2.41292C8.53935 3.08136 8.20513 3.90099 8.20513 4.87179C8.20513 5.84257 8.53935 6.66219 9.20779 7.33067C9.87624 7.99911 10.6959 8.33333 11.6667 8.33333Z" fill="black" fill-opacity="0.6"/>
</svg>
